<?xml version="1.0" standalone="no"?>
<!DOCTYPE svg PUBLIC "-//W3C//DTD SVG 20010904//EN"
 "http://www.w3.org/TR/2001/REC-SVG-20010904/DTD/svg10.dtd">
<svg version="1.0" xmlns="http://www.w3.org/2000/svg"
 width="300.000000pt" height="298.000000pt" viewBox="60 60 200.000000 198.000000"
 preserveAspectRatio="xMidYMid meet">
<metadata>
Created by potrace 1.10, written by Peter Selinger 2001-2011
</metadata>
<g transform="translate(0.000000,298.000000) scale(0.100000,-0.100000)"
fill="#000000" stroke="none">
<path d="M1838 2251 c-25 -22 -51 -54 -58 -71 -15 -36 -8 -143 10 -165 11 -13
6 -15 -29 -15 -48 0 -86 -17 -121 -55 -21 -22 -25 -36 -25 -85 1 -48 8 -72 43
-141 23 -46 50 -95 60 -108 l19 -24 69 46 c88 58 117 83 148 131 44 66 27 149
-39 192 l-25 16 43 28 c52 32 69 70 65 136 -3 46 -5 49 -31 49 -24 0 -31 6
-42 39 -24 69 -35 72 -87 27z m61 -47 c9 -34 8 -38 -24 -68 -38 -36 -55 -97
-36 -127 15 -25 14 -34 -2 -20 -8 6 -16 9 -18 7 -2 -2 -5 5 -6 17 -1 12 -5 49
-8 82 -6 56 -5 63 24 103 38 52 57 53 70 6z m68 -95 c-6 -46 -36 -83 -78 -98
-27 -9 -29 -8 -29 17 0 39 21 73 59 99 47 32 54 29 48 -18z m-83 -173 c107
-62 80 -159 -74 -262 -75 -51 -69 -54 -126 58 -58 114 -55 179 8 219 45 28
130 21 192 -15z"/>
<path d="M1711 1916 c-30 -36 -18 -170 16 -183 22 -9 24 1 8 40 -19 46 -19 84
0 121 8 15 15 30 15 32 0 10 -29 2 -39 -10z"/>
<path d="M930 2178 c-32 -51 -53 -133 -45 -178 9 -55 55 -122 108 -156 30 -19
57 -49 80 -89 50 -86 64 -102 76 -90 6 7 -5 33 -34 80 l-44 70 26 53 c47 96
41 179 -20 248 -28 32 -108 94 -121 94 -4 0 -15 -15 -26 -32z m97 -55 c48 -39
78 -105 70 -156 -6 -41 -35 -112 -43 -105 -3 3 -20 48 -38 99 -32 87 -56 124
-56 82 0 -22 22 -93 45 -148 l17 -40 -37 35 c-50 47 -68 86 -68 141 1 57 37
144 55 133 7 -4 32 -22 55 -41z"/>
<path d="M1276 2201 c-4 -5 -1 -44 5 -86 6 -42 8 -79 6 -82 -5 -4 -49 86 -62
127 -4 13 -13 20 -23 18 -14 -3 -17 -16 -17 -79 0 -67 3 -80 28 -112 l27 -36
-25 -37 c-14 -20 -25 -51 -25 -68 0 -20 36 -94 113 -228 91 -161 116 -197 134
-198 20 0 19 5 -23 72 -49 81 -51 88 -26 88 27 0 49 17 37 29 -7 7 -22 8 -42
2 -29 -9 -34 -7 -52 22 -22 35 -19 47 10 47 11 0 19 7 19 16 0 13 -7 15 -35
11 -32 -5 -36 -3 -60 36 l-25 42 23 5 c12 3 22 12 22 20 0 14 -13 17 -45 9
-21 -6 -24 34 -6 69 17 32 84 62 139 62 41 0 87 -48 87 -93 0 -31 -3 -35 -41
-46 -23 -7 -39 -17 -36 -24 4 -13 20 -14 53 -3 19 6 22 2 27 -46 4 -29 7 -113
7 -185 0 -120 2 -133 18 -133 16 0 17 15 10 222 -4 123 -12 240 -18 261 -12
41 -57 77 -98 77 -17 0 -22 4 -18 18 2 9 7 26 10 38 8 27 -16 95 -50 139 -27
36 -39 42 -48 26z m64 -155 c0 -28 -5 -58 -10 -66 -7 -11 -10 -1 -10 36 0 28
-3 67 -6 85 -5 32 -5 33 10 15 10 -12 16 -39 16 -70z m-87 -18 c20 -38 32 -68
27 -68 -13 0 -56 60 -65 90 -17 61 -17 65 -8 55 6 -5 26 -40 46 -77z"/>
<path d="M1553 2130 c-44 -18 -56 -73 -22 -109 28 -30 75 -25 102 11 17 23 18
31 8 56 -10 23 -50 56 -64 51 -1 0 -12 -4 -24 -9z m57 -49 c7 -15 6 -24 -6
-36 -31 -31 -82 6 -55 39 18 22 48 20 61 -3z"/>
<path d="M2047 1992 c-22 -25 -21 -75 1 -95 25 -22 75 -21 95 1 22 25 21 75
-1 95 -25 22 -75 21 -95 -1z m78 -47 c0 -25 -4 -30 -24 -30 -32 0 -49 28 -31
50 7 9 23 15 34 13 16 -2 21 -10 21 -33z"/>
<path d="M2208 1850 c-31 -56 -35 -59 -63 -54 -49 9 -81 -11 -196 -121 -108
-104 -207 -177 -306 -225 -29 -14 -52 -28 -53 -31 0 -3 19 -3 43 1 54 8 185
92 295 189 44 39 90 71 101 71 11 0 32 -15 46 -34 14 -19 39 -39 55 -44 16 -6
35 -23 44 -39 14 -27 13 -32 -15 -83 -34 -63 -34 -60 -11 -60 12 0 33 31 70
105 54 108 60 136 41 178 -10 21 -6 34 25 89 41 73 42 80 20 102 -33 33 -61
20 -96 -44z m75 23 c4 -3 -11 -38 -32 -77 -35 -65 -37 -73 -25 -96 18 -33 17
-58 -5 -99 -17 -32 -19 -33 -25 -13 -4 11 -24 29 -46 38 -21 9 -43 28 -49 41
-6 13 -23 28 -37 34 l-27 10 22 23 c29 31 62 39 98 25 22 -8 30 -7 36 3 4 7
21 37 38 66 28 50 39 59 52 45z"/>
<path d="M752 1874 c-28 -19 -30 -74 -4 -97 24 -22 75 -22 95 1 27 30 26 63
-3 92 -24 24 -57 26 -88 4z m68 -29 c6 -8 9 -23 5 -35 -10 -31 -59 -24 -63 9
-6 37 34 55 58 26z"/>
<path d="M882 1705 c-23 -10 -38 -27 -50 -55 -15 -35 -21 -40 -52 -40 -37 -1
-69 -22 -89 -57 -14 -27 -14 -90 0 -98 6 -4 8 -13 5 -21 -3 -9 1 -14 14 -14
26 0 32 14 15 36 -23 30 -18 72 11 101 22 22 31 25 70 19 l44 -6 0 33 c0 42
38 80 79 80 37 0 58 -16 77 -61 13 -33 15 -34 32 -18 37 32 92 12 92 -34 0
-29 -34 -65 -52 -54 -15 10 -20 -25 -8 -61 8 -24 18 -35 31 -35 16 0 18 3 9
19 -15 28 -12 51 5 51 8 0 24 15 35 33 24 37 19 70 -13 105 -18 19 -30 23 -64
20 -35 -3 -44 1 -54 19 -12 22 -65 53 -91 53 -7 -1 -28 -7 -46 -15z"/>
<path d="M1930 1554 c-64 -50 -66 -52 -47 -60 11 -4 34 8 67 36 78 66 61 87
-20 24z"/>
<path d="M780 1476 c0 -22 49 -56 79 -56 32 0 71 25 71 46 0 18 -24 18 -40 -1
-18 -21 -58 -19 -72 5 -15 23 -38 27 -38 6z"/>
<path d="M1215 1450 c-24 -27 -13 -36 25 -20 23 10 33 10 45 0 8 -6 22 -10 32
-8 16 3 16 5 -5 26 -28 28 -73 29 -97 2z"/>
<path d="M1735 1427 c-16 -13 -15 -14 13 -9 18 2 29 8 26 13 -7 12 -17 11 -39
-4z"/>
<path d="M1355 1310 c-4 -12 -1 -28 6 -36 9 -11 8 -18 -5 -32 -19 -22 -21 -43
-4 -60 15 -15 50 -16 65 -1 8 8 17 8 31 0 25 -13 32 -14 32 -2 0 5 -9 11 -21
14 -16 4 -19 9 -11 24 5 10 7 24 5 31 -3 6 2 12 11 12 9 0 16 5 16 10 0 6 -9
10 -20 10 -16 0 -20 -7 -20 -30 0 -34 -6 -37 -32 -13 -18 16 -18 17 2 38 27
29 17 55 -20 55 -20 0 -31 -6 -35 -20z m50 0 c10 -16 -16 -43 -28 -31 -11 11
-2 41 12 41 5 0 13 -5 16 -10z m1 -91 c16 -17 16 -22 4 -29 -20 -13 -26 -12
-40 5 -13 15 -7 45 8 45 5 0 17 -9 28 -21z"/>
<path d="M720 1246 l0 -76 34 0 c19 0 38 5 41 10 4 6 -7 10 -24 10 l-31 0 0
59 c0 33 -4 63 -10 66 -6 4 -10 -22 -10 -69z"/>
<path d="M820 1245 c0 -53 4 -75 13 -75 9 0 11 20 9 75 -5 97 -22 98 -22 0z"/>
<path d="M890 1239 c0 -72 -2 -81 -20 -86 -26 -7 -26 -23 0 -23 10 0 24 9 30
19 13 25 13 171 0 171 -6 0 -10 -34 -10 -81z"/>
<path d="M950 1243 l0 -73 40 0 c22 0 40 5 40 10 0 6 -13 10 -30 10 -25 0 -30
4 -30 24 0 19 6 26 28 29 l27 4 -27 2 c-23 1 -28 6 -28 26 0 21 5 25 32 25 42
0 27 13 -17 14 l-35 1 0 -72z"/>
<path d="M1060 1243 c0 -42 4 -73 10 -73 6 0 10 14 10 30 0 23 5 30 19 30 11
0 27 10 35 22 21 30 5 55 -39 60 l-35 4 0 -73z m55 27 c0 -16 -6 -26 -17 -28
-14 -3 -18 3 -18 28 0 25 4 31 18 28 11 -2 17 -12 17 -28z"/>
<path d="M1608 1312 c-27 -2 -48 -6 -48 -11 0 -4 16 -5 36 -3 29 4 35 2 28 -9
-4 -8 -23 -38 -41 -66 l-34 -53 56 0 c30 0 55 5 55 10 0 6 -16 10 -35 10 -19
0 -35 2 -35 5 0 2 16 30 36 61 20 30 34 56 32 57 -1 1 -24 1 -50 -1z"/>
<path d="M1835 1243 c0 -46 4 -73 11 -73 6 0 9 13 6 30 -6 39 6 38 40 -2 14
-18 29 -30 32 -27 4 3 -2 17 -13 30 -17 21 -17 26 -4 45 20 32 3 61 -39 66
l-33 3 0 -72z m55 42 c10 -12 10 -18 0 -30 -21 -25 -40 -18 -40 15 0 33 19 40
40 15z"/>
<path d="M2083 1244 c16 -41 33 -71 38 -67 11 12 60 136 55 141 -10 10 -24
-10 -36 -53 -7 -25 -16 -48 -20 -50 -4 -3 -13 16 -20 41 -7 24 -21 49 -30 54
-14 8 -12 -5 13 -66z"/>
<path d="M2221 1299 c-5 -13 -18 -48 -30 -76 -12 -32 -16 -53 -10 -53 6 0 13
9 16 20 4 14 14 20 33 20 20 0 31 -6 35 -20 5 -16 25 -29 25 -16 0 6 -51 141
-56 145 -2 2 -8 -7 -13 -20z m23 -51 c5 -24 3 -28 -14 -28 -23 0 -23 0 -10 36
12 31 15 30 24 -8z"/>
<path d="M1169 1240 c-15 -39 -22 -70 -17 -70 5 0 12 9 15 20 4 14 14 20 33
20 20 0 31 -6 35 -20 3 -11 11 -20 17 -20 5 0 8 6 5 13 -2 6 -13 38 -23 70
-10 31 -22 57 -28 57 -6 0 -23 -32 -37 -70z m48 -16 c-3 -4 -13 -4 -22 0 -13
5 -14 10 -4 28 l12 23 10 -23 c6 -12 7 -25 4 -28z"/>
<path d="M1690 1240 l0 -70 30 0 c37 0 80 39 80 72 0 42 -27 68 -71 68 l-39 0
0 -70z m72 43 c34 -30 16 -93 -27 -93 -24 0 -25 3 -25 55 0 60 15 71 52 38z"/>
<path d="M1972 1263 c-28 -68 -35 -93 -24 -93 5 0 12 9 15 20 3 14 14 20 32
20 18 0 29 -6 32 -20 3 -11 11 -20 18 -20 9 0 5 21 -14 70 -14 38 -29 70 -32
70 -4 0 -16 -21 -27 -47z m42 -35 c-7 -10 -34 -10 -34 0 0 4 3 18 7 31 l6 23
13 -23 c7 -13 10 -27 8 -31z"/>
<path d="M912 988 c47 -90 146 -185 238 -230 110 -54 193 -72 340 -72 143 0
240 21 344 77 82 44 186 143 224 216 37 67 37 71 17 71 -8 0 -26 -22 -40 -49
-81 -161 -268 -269 -490 -285 -73 -5 -229 11 -283 29 -144 47 -261 138 -317
247 -20 38 -36 58 -48 58 -16 0 -14 -8 15 -62z"/>
<path d="M1020 1041 c0 -11 26 -22 34 -14 12 12 5 23 -14 23 -11 0 -20 -4 -20
-9z"/>
<path d="M1070 986 c0 -25 144 -136 177 -136 27 0 12 26 -29 49 -22 13 -60 41
-83 62 -44 41 -65 49 -65 25z"/>
</g>
</svg>
