<?xml version="1.0" standalone="no"?>
<!DOCTYPE svg PUBLIC "-//W3C//DTD SVG 20010904//EN"
 "http://www.w3.org/TR/2001/REC-SVG-20010904/DTD/svg10.dtd">
<svg version="1.0" xmlns="http://www.w3.org/2000/svg"
 width="300.000000pt" height="299.000000pt" viewBox="60 110 200 29"
 preserveAspectRatio="xMidYMid meet">
<metadata>
Created by potrace 1.10, written by Peter Selinger 2001-2011
</metadata>
<g transform="translate(0.000000,299.000000) scale(0.100000,-0.100000)"
fill="#000000" stroke="none">
<path d="M1070 1743 c-13 -17 -19 -35 -16 -49 5 -17 1 -23 -20 -28 -40 -10
-45 -43 -17 -99 l24 -48 27 20 c49 34 65 58 58 86 -4 14 -11 25 -17 25 -6 0
-1 12 10 26 25 31 27 54 6 54 -8 0 -15 6 -15 14 0 27 -18 26 -40 -1z m30 -7
c0 -8 -4 -18 -10 -21 -5 -3 -10 -13 -10 -22 0 -11 5 -9 20 8 15 19 19 20 20 8
0 -21 -26 -43 -40 -34 -11 7 -13 35 -4 59 8 20 24 21 24 2z m0 -96 c27 -27 26
-30 -15 -70 -34 -33 -35 -33 -50 -14 -25 34 -30 76 -9 91 25 19 51 16 74 -7z"/>
<path d="M1030 1611 c0 -17 4 -32 8 -35 5 -3 8 11 8 29 -1 42 -16 47 -16 6z"/>
<path d="M750 1705 c-12 -37 -4 -64 28 -87 9 -7 26 -26 35 -41 10 -16 21 -26
24 -24 2 3 -2 16 -11 29 -10 16 -12 28 -6 38 17 27 11 70 -15 95 -32 33 -41
31 -55 -10z m56 -10 c11 -17 14 -34 9 -52 l-7 -28 -12 32 c-6 17 -14 35 -18
39 -12 11 -10 -14 2 -37 6 -11 7 -19 1 -19 -11 0 -21 25 -21 54 0 43 22 48 46
11z"/>
<path d="M880 1722 c0 -13 4 -20 10 -17 14 9 12 -7 -4 -27 -16 -22 -27 -12
-20 17 3 13 1 26 -5 29 -15 9 -15 -46 0 -61 8 -8 7 -16 -2 -30 -10 -17 -6 -31
30 -96 23 -42 50 -81 59 -86 30 -17 -4 -41 -59 -41 -47 0 -48 1 -58 36 -8 28
-7 40 4 50 20 21 10 38 -34 57 -47 21 -58 21 -69 1 -5 -8 -20 -21 -33 -28 -18
-9 -24 -20 -25 -49 -1 -46 24 -74 55 -58 25 14 31 14 31 1 0 -5 -7 -10 -15
-10 -30 0 -7 -86 36 -134 74 -85 253 -92 337 -13 35 32 60 87 58 127 -2 21 9
58 27 94 16 32 27 67 24 77 -3 10 2 27 10 39 12 17 13 24 3 33 -9 9 -15 7 -27
-10 -9 -13 -23 -23 -32 -23 -10 0 -30 -14 -47 -31 -26 -29 -154 -119 -168
-119 -3 0 -6 38 -6 84 0 99 -5 114 -36 127 -13 4 -24 13 -24 19 0 6 5 8 10 5
17 -10 11 11 -10 36 l-19 24 -1 -23z m58 -99 c2 -14 -3 -23 -15 -26 -14 -4
-13 -5 5 -6 21 -1 22 -5 22 -68 -1 -66 -1 -67 -16 -40 -8 15 -12 32 -9 37 3 6
-1 10 -10 10 -12 0 -15 6 -10 21 5 13 3 19 -3 15 -5 -3 -15 1 -21 8 -9 11 -9
16 0 22 9 5 8 9 -5 14 -18 6 -18 7 -1 24 23 23 59 17 63 -11z m282 -32 c-6
-12 -8 -26 -5 -32 4 -5 -8 -41 -27 -79 l-33 -69 -98 -1 c-115 0 -119 7 -36 57
30 18 75 51 101 73 26 22 54 40 62 40 8 0 20 9 26 21 7 11 14 18 17 16 2 -3 0
-15 -7 -26z m-407 -61 c9 0 17 -7 17 -15 0 -8 -7 -15 -15 -15 -18 0 -18 1 0
-43 17 -41 4 -60 -14 -20 -6 14 -14 23 -17 20 -3 -3 -1 -15 6 -26 15 -28 -4
-27 -24 1 -12 17 -18 20 -28 10 -24 -24 -46 -14 -50 22 -5 42 0 56 18 56 8 0
23 9 35 21 19 19 22 19 38 5 10 -9 25 -16 34 -16z m355 -142 c-4 -10 -55 -14
-204 -16 -201 -2 -230 0 -219 18 10 16 428 13 423 -2z m-13 -50 c-11 -37 -79
-96 -126 -108 -48 -13 -147 -7 -182 11 -43 22 -97 86 -97 114 0 3 93 5 206 5
l205 0 -6 -22z"/>
<path d="M1169 1539 c13 -11 26 -17 29 -14 7 6 -29 34 -43 34 -5 0 1 -9 14
-20z"/>
<path d="M1110 1510 c-14 -10 -22 -21 -19 -24 3 -3 16 5 29 19 28 30 24 32
-10 5z"/>
<path d="M1018 1452 c-41 -25 -34 -35 7 -11 19 12 35 23 35 25 0 8 -16 3 -42
-14z"/>
<path d="M710 1478 c0 -12 18 -18 34 -12 24 9 19 19 -9 19 -14 0 -25 -3 -25
-7z"/>
<path d="M790 1334 c0 -8 5 -12 10 -9 6 4 8 11 5 16 -9 14 -15 11 -15 -7z"/>
<path d="M811 1313 c1 -14 60 -56 67 -48 4 4 1 10 -7 13 -7 2 -22 13 -32 23
-20 20 -29 24 -28 12z"/>
<path d="M970 1705 c-15 -18 -5 -35 21 -35 12 0 19 7 19 19 0 24 -25 34 -40
16z m30 -15 c0 -5 -4 -10 -10 -10 -5 0 -10 5 -10 10 0 6 5 10 10 10 6 0 10 -4
10 -10z"/>
<path d="M1150 1651 c0 -27 19 -36 37 -18 18 18 9 37 -18 37 -12 0 -19 -7 -19
-19z m30 -1 c0 -5 -4 -10 -10 -10 -5 0 -10 5 -10 10 0 6 5 10 10 10 6 0 10 -4
10 -10z"/>
<path d="M1408 1560 l4 -80 39 0 c21 0 39 5 39 10 0 6 -16 10 -35 10 l-35 0 0
70 c0 39 -3 70 -7 70 -5 0 -7 -36 -5 -80z"/>
<path d="M1500 1560 c0 -45 4 -79 8 -76 12 7 14 144 2 151 -6 4 -10 -23 -10
-75z"/>
<path d="M1540 1631 c0 -6 14 -11 30 -11 l31 0 -3 -57 c-3 -50 -6 -58 -24 -61
-15 -2 -23 4 -28 20 -4 13 -10 18 -12 11 -9 -22 16 -54 39 -51 31 4 48 45 43
103 -3 49 -4 50 -40 53 -21 2 -36 -1 -36 -7z"/>
<path d="M1640 1638 c-1 -2 -1 -37 -2 -78 l-2 -75 42 -3 c25 -2 42 1 42 7 0 6
-16 11 -35 11 -33 0 -35 2 -35 31 0 30 2 31 30 26 17 -4 30 -2 30 3 0 6 -13
10 -30 10 -25 0 -30 4 -30 25 0 22 4 25 35 25 19 0 35 5 35 10 0 8 -79 16 -80
8z"/>
<path d="M1742 1558 c0 -46 3 -68 5 -50 3 25 9 32 27 32 26 0 51 18 59 43 9
25 -27 57 -63 57 l-30 0 2 -82z m73 33 c0 -18 -7 -26 -27 -32 -33 -9 -38 -4
-38 33 0 27 3 29 33 26 26 -2 32 -7 32 -27z"/>
<path d="M1865 1605 c-39 -92 -47 -116 -42 -122 4 -3 11 6 16 21 9 21 17 26
44 26 27 0 36 -6 47 -27 7 -16 14 -23 17 -17 2 6 -12 44 -30 85 l-34 74 -18
-40z m45 -57 c0 -5 -11 -8 -25 -8 -27 0 -31 10 -14 42 11 21 12 21 25 -3 7
-13 13 -27 14 -31z"/>
<path d="M694 1615 c-4 -9 -2 -21 4 -27 15 -15 44 -1 40 19 -4 23 -36 29 -44
8z m26 -11 c0 -8 -5 -12 -10 -9 -6 4 -8 11 -5 16 9 14 15 11 15 -7z"/>
<path d="M854 1469 c-3 -6 0 -17 7 -25 18 -17 44 -2 36 20 -7 18 -33 21 -43 5z
m36 -9 c0 -5 -4 -10 -10 -10 -5 0 -10 5 -10 10 0 6 5 10 10 10 6 0 10 -4 10
-10z"/>
<path d="M1441 1449 c-19 -7 -22 -15 -18 -36 3 -15 -1 -37 -10 -49 -11 -17
-12 -27 -3 -43 9 -17 19 -21 60 -19 49 2 61 10 39 23 -6 4 -8 14 -5 22 4 10 2
13 -8 10 -8 -3 -20 1 -26 8 -10 12 -9 16 4 21 19 7 21 47 4 62 -8 6 -22 6 -37
1z m36 -25 c7 -20 -17 -37 -34 -23 -15 13 -6 39 13 39 8 0 17 -7 21 -16z m-1
-99 c-1 -5 -13 -10 -27 -10 -28 0 -37 28 -18 51 11 14 15 13 31 -8 9 -13 16
-27 14 -33z"/>
<path d="M1620 1441 c0 -5 18 -7 40 -4 22 3 40 2 40 -1 0 -4 -18 -33 -40 -63
-22 -31 -40 -60 -40 -64 0 -4 23 -9 50 -11 33 -2 50 1 50 9 0 7 -13 9 -40 6
-22 -3 -40 -2 -40 1 0 4 18 33 40 63 22 31 40 60 40 65 0 4 -22 8 -50 8 -27 0
-50 -4 -50 -9z"/>
<path d="M1740 1375 l0 -75 35 0 c44 0 75 32 75 77 0 44 -30 73 -75 73 l-35 0
0 -75z m65 53 c33 -15 42 -51 21 -82 -15 -24 -52 -43 -63 -32 -4 4 -7 94 -4
121 1 8 19 6 46 -7z"/>
<path d="M1870 1369 c0 -56 3 -78 11 -73 6 3 9 19 5 35 -5 28 -4 29 29 29 32
0 35 -2 35 -30 0 -16 4 -30 8 -30 10 0 9 57 -1 66 -3 4 -2 15 4 26 15 28 -14
58 -58 58 l-33 0 0 -81z m70 56 c19 -23 4 -45 -29 -45 -27 0 -29 3 -27 28 5
34 3 32 25 32 10 0 24 -7 31 -15z"/>
<path d="M2015 1388 c-39 -89 -38 -88 -27 -88 6 0 14 9 17 20 10 30 80 29 88
-2 4 -12 9 -19 13 -16 7 7 -47 148 -57 148 -4 0 -19 -28 -34 -62z m50 -5 c5
-20 3 -23 -19 -23 -24 0 -24 2 -14 31 11 32 21 29 33 -8z"/>
<path d="M2092 1442 c2 -4 14 -38 28 -75 14 -37 28 -67 31 -67 6 0 59 132 59
146 0 2 -4 4 -8 4 -5 0 -17 -27 -27 -60 -10 -33 -21 -57 -25 -53 -4 4 -15 32
-26 61 -10 28 -22 52 -27 52 -5 0 -7 -3 -5 -8z"/>
<path d="M2226 1397 c-13 -30 -27 -66 -30 -79 l-7 -23 17 23 c22 30 83 31 91
2 3 -11 9 -20 14 -20 5 0 9 1 9 3 0 7 -57 138 -63 143 -3 4 -17 -18 -31 -49z
m54 -29 c0 -5 -11 -8 -25 -8 -29 0 -29 0 -13 35 l12 26 13 -23 c7 -13 12 -26
13 -30z"/>
</g>
</svg>
